<?xml version="1.0" encoding="iso-8859-1"?>
<!-- Generator: Adobe Illustrator 19.0.0, SVG Export Plug-In . SVG Version: 6.00 Build 0)  -->
<svg xmlns="http://www.w3.org/2000/svg" xmlns:xlink="http://www.w3.org/1999/xlink" version="1.1" id="Layer_1" x="0px" y="0px" viewBox="0 0 512 512" style="enable-background:new 0 0 512 512;" xml:space="preserve" width="512" height="512">
<g>
	<circle style="fill:#DAE9FA;" cx="256" cy="256" r="256"/>
	<path style="fill:#AFC5F4;" d="M309.225,77.449l-65.221,65.221l83.667,83.667l-44.392,44.392l-91.823-91.822L171.2,224.161   l66.823,91.822l-68.811,68.812l124.442,124.442c116.027-17.105,206.701-112.044,217.292-230.067L309.225,77.449z"/>
	<g>
		<g id="Hot">
			<g>
				<path style="fill:#FF9100;" d="M328.794,186.988c-17.284-19.724-32.127-37.481-32.127-61.678      c0-12.607,4.676-24.604,13.014-33.958c2.847-3.049,3.253-7.726,1.423-11.387c-2.034-3.863-6.101-5.896-10.37-5.489      c-8.947,1.22-27.857,15.25-44.734,36.396c-1.423,1.627-2.847,3.254-4.067,5.083c-20.739,27.247-42.903,72.861-39.447,135.691      c-13.014-15.657-20.943-41.277-17.893-64.05c0.611-5.083-2.643-9.963-7.727-11.183c-5.083-1.22-10.167,1.627-11.996,6.507      c-6.1,16.877-12.81,30.296-19.113,43.107C143.963,249.208,134,269.338,134,298.821c0,67.303,54.697,122.678,122,122.678      s122-55.375,122-122.678C378,243.514,351.77,213.421,328.794,186.988z"/>
			</g>
		</g>
		<path style="fill:#FF641A;" d="M378,298.821c0,67.303-54.697,122.678-122,122.678V110.873    c16.877-21.146,35.787-35.176,44.734-36.396c4.269-0.407,8.336,1.626,10.37,5.489c1.829,3.661,1.423,8.337-1.423,11.387    c-8.337,9.354-13.014,21.351-13.014,33.958c0,24.197,14.843,41.954,32.127,61.678C351.77,213.421,378,243.514,378,298.821z"/>
	</g>
</g>















</svg>
